<?xml version="1.0" encoding="utf-8"?><svg viewBox="0 0 550 424" xmlns="http://www.w3.org/2000/svg" xmlns:xlink="http://www.w3.org/1999/xlink"><style>:root>svg{display:none}:root>svg:target{display:block}</style><svg fill="none" viewBox="0 0 20 19" id="cart" xmlns="http://www.w3.org/2000/svg"><path d="M20 6.579h-3.396L13.036.319a.608.608 0 00-.858-.225.678.678 0 00-.214.902l3.182 5.583H4.854L8.036.996a.678.678 0 00-.214-.902.608.608 0 00-.858.225L3.396 6.58H0v1.316h1.357l1.587 8.915c.166.934.941 1.611 1.844 1.611h10.424c.902 0 1.678-.677 1.843-1.61l1.588-8.916H20V6.579zm-4.174 9.99a.634.634 0 01-.614.536H4.788c-.301 0-.56-.225-.615-.537L2.628 7.895h14.744l-1.546 8.674z" fill="#fff"/></svg><svg fill="none" viewBox="0 0 550 424" id="curl" xmlns="http://www.w3.org/2000/svg"><g clip-path="url(#bclip0)"><circle cx="-14" cy="102" r="321.5" stroke="#fff" stroke-opacity=".5"/><circle cx="401.5" cy="-33.5" r="148" stroke="#fff" stroke-opacity=".5"/><circle cx="511.5" cy="65.5" r="7.5" fill="#F14F4F"/></g><defs><clipPath id="bclip0"><path fill="#fff" d="M0 0h550v424H0z"/></clipPath></defs></svg><svg fill="none" viewBox="0 0 30 30" id="show" xmlns="http://www.w3.org/2000/svg"><path clip-rule="evenodd" d="M18.952 15.066a3.952 3.952 0 11-7.904-.001 3.952 3.952 0 017.904.001z" stroke="#fff" stroke-width="1.5" stroke-linecap="round" stroke-linejoin="round"/><path clip-rule="evenodd" d="M14.998 24.194c4.76 0 9.113-3.423 11.565-9.128C24.11 9.361 19.758 5.94 14.998 5.94h.005c-4.76 0-9.114 3.422-11.566 9.127 2.452 5.705 6.806 9.128 11.566 9.128h-.005z" stroke="#fff" stroke-width="1.5" stroke-linecap="round" stroke-linejoin="round"/></svg></svg>